<svg width="128" height="33" viewBox="0 0 128 33" fill="none" xmlns="http://www.w3.org/2000/svg">
<g clip-path="url(#clip0_4_5273)">
<path fill-rule="evenodd" clip-rule="evenodd" d="M0 14.2573C0 6.59895 6.20832 0.390625 13.8667 0.390625C21.525 0.390625 27.7333 6.59895 27.7333 14.2573V32.3906H20.2667H12.8H0V23.8573V19.0573V14.2573ZM2.13333 23.8573V30.2573H10.6667V23.8573C10.6667 21.5009 8.75642 19.5906 6.4 19.5906C4.04359 19.5906 2.13333 21.5009 2.13333 23.8573ZM12.8 30.2573V23.8573C12.8 20.3226 9.93462 17.4573 6.4 17.4573C4.76084 17.4573 3.26561 18.0735 2.13333 19.0869V19.0573C2.13333 14.639 5.71506 11.0573 10.1333 11.0573C14.5516 11.0573 18.1333 14.639 18.1333 19.0573V30.2573H12.8ZM25.6 30.2573H20.2667V19.0573C20.2667 13.4608 15.7298 8.92395 10.1333 8.92395C6.94016 8.92395 4.09195 10.4009 2.23459 12.7089C2.99238 6.96063 7.9114 2.52396 13.8667 2.52396C20.3468 2.52396 25.6 7.77716 25.6 14.2573V30.2573Z" fill="white"/>
<path d="M68.3574 23.2981H70.7543V9.45703H68.3574V23.2981Z" fill="white"/>
<path fill-rule="evenodd" clip-rule="evenodd" d="M63.7951 21.0239C63.2206 21.5533 62.25 21.7885 61.1605 21.7885C59.556 21.7885 58.3081 21.2788 57.8327 20.2201C57.6742 19.9065 57.595 19.5732 57.5554 19.1615H66.8654C66.8654 18.0048 66.7069 17.1029 66.3504 16.2403C65.5382 14.4563 63.6762 13.378 61.0021 13.378C58.3675 13.378 56.4065 14.3779 55.5943 16.2011C55.2972 16.8677 55.1387 17.5931 55.1387 18.4949C55.1387 19.3575 55.2774 20.1025 55.5943 20.7495C56.4065 22.5727 58.4071 23.5922 61.1407 23.5922C62.9433 23.5922 64.5478 23.1805 65.6175 22.2198C66.0789 21.8047 66.412 21.3211 66.6168 20.7485H64.0557C63.9787 20.8479 63.8915 20.9405 63.7951 21.0239ZM61.0021 15.2013C62.5273 15.2013 63.7158 15.6718 64.2111 16.7501C64.3101 16.9853 64.3893 17.201 64.429 17.4754H57.595C57.6346 17.2402 57.7138 17.0245 57.8129 16.8089C58.3081 15.711 59.4372 15.2013 61.0021 15.2013Z" fill="white"/>
<path d="M82.5249 22.1806C81.4751 23.1021 79.9498 23.5922 78.0878 23.5922C75.5523 23.5922 73.5912 22.6316 72.7593 20.7887C72.4622 20.1221 72.3037 19.3575 72.3037 18.4753C72.3037 17.6127 72.4622 16.8285 72.7593 16.1815C73.5912 14.3779 75.5127 13.378 78.0878 13.378C79.9498 13.378 81.4552 13.8485 82.5051 14.8092C83.2776 15.4757 83.6936 16.358 83.753 17.4166H81.1977C81.1383 16.8481 80.9006 16.3972 80.5441 16.0639C79.9894 15.5738 79.098 15.3581 78.1076 15.3581C76.6616 15.3581 75.5721 15.907 75.0967 16.9069C74.9184 17.3578 74.8194 17.8283 74.8194 18.4753C74.8194 19.1027 74.9184 19.5928 75.0967 20.0241C75.5721 21.0239 76.6616 21.5729 78.1076 21.5729C79.098 21.5729 80.0092 21.3572 80.5441 20.8475C80.9402 20.5142 81.1779 20.0437 81.1977 19.4948H83.7927C83.7134 20.573 83.2975 21.4749 82.5249 22.1806Z" fill="white"/>
<path fill-rule="evenodd" clip-rule="evenodd" d="M91.0262 23.5726C93.7994 23.5726 95.7011 22.5139 96.5132 20.7299C96.8103 20.0633 96.9688 19.3183 96.9688 18.4753C96.9688 17.6519 96.8103 16.9069 96.5132 16.2403C95.7011 14.4563 93.7994 13.378 91.0262 13.378C88.2728 13.378 86.3712 14.4563 85.5393 16.2795C85.2421 16.9265 85.1035 17.6715 85.1035 18.4753C85.1035 19.2987 85.2421 20.0241 85.5393 20.6907C86.3712 22.4943 88.2728 23.5726 91.0262 23.5726ZM91.0262 21.6121C89.5208 21.6121 88.3719 21.0435 87.8767 19.9849C87.6984 19.5536 87.5994 19.0634 87.5994 18.4753C87.5994 17.9068 87.6984 17.397 87.8767 16.9853C88.3719 15.9266 89.5208 15.3581 91.0262 15.3581C92.5317 15.3581 93.7004 15.907 94.1956 16.9853C94.3739 17.397 94.4531 17.9068 94.4531 18.4753C94.4531 19.0634 94.3739 19.5536 94.1956 19.9849C93.7004 21.0435 92.5317 21.6121 91.0262 21.6121Z" fill="white"/>
<path fill-rule="evenodd" clip-rule="evenodd" d="M122.294 21.7885C123.383 21.7885 124.354 21.5533 124.928 21.0239C125.025 20.9405 125.112 20.8479 125.189 20.7485H127.75C127.545 21.3211 127.212 21.8047 126.751 22.2198C125.681 23.1805 124.077 23.5922 122.274 23.5922C119.54 23.5922 117.54 22.5727 116.728 20.7495C116.411 20.1025 116.272 19.3575 116.272 18.4949C116.272 17.5931 116.431 16.8677 116.728 16.2011C117.54 14.3779 119.501 13.378 122.135 13.378C124.81 13.378 126.672 14.4563 127.484 16.2403C127.84 17.1029 127.999 18.0048 127.999 19.1615H118.689C118.728 19.5732 118.808 19.9065 118.966 20.2201C119.441 21.2788 120.689 21.7885 122.294 21.7885ZM125.344 16.7501C124.849 15.6718 123.661 15.2013 122.135 15.2013C120.571 15.2013 119.441 15.711 118.946 16.8089C118.847 17.0245 118.768 17.2402 118.728 17.4754H125.562C125.523 17.201 125.443 16.9853 125.344 16.7501Z" fill="white"/>
<path d="M103.164 13.3984C100.577 13.3984 98.4805 15.4968 98.4805 18.0854V23.3051H100.928V17.5661C100.928 16.3307 101.929 15.3691 103.164 15.3691C104.398 15.3691 105.399 16.3307 105.399 17.5661V23.3051H107.847V17.5661C107.847 16.3307 108.848 15.3691 110.082 15.3691C111.317 15.3691 112.318 16.3307 112.318 17.5661V23.3051H114.766V18.0854C114.766 15.4968 112.669 13.3984 110.082 13.3984C108.712 13.3984 107.479 13.9872 106.623 14.9258C105.767 13.9872 104.534 13.3984 103.164 13.3984Z" fill="white"/>
<path d="M49.6743 20.5574L52.2015 13.6615H54.7679L50.8889 23.2806H48.4596L46.0499 16.5413L43.6403 23.2806H41.211L37.332 13.6615H39.8984L42.4256 20.577L44.8353 13.6615H47.245L49.6743 20.5574Z" fill="white"/>
</g>
<defs>
<clipPath id="clip0_4_5273">
<rect width="128" height="32" fill="white" transform="translate(0 0.390625)"/>
</clipPath>
</defs>
</svg>
